<?xml version="1.0" encoding="utf-8"?><!DOCTYPE svg  PUBLIC '-//W3C//DTD SVG 1.1//EN'  'http://www.w3.org/Graphics/SVG/1.1/DTD/svg11.dtd'><svg viewBox="0 0 512 512" xmlns="http://www.w3.org/2000/svg" xmlns:xlink="http://www.w3.org/1999/xlink"><style>:root>svg{display:none}:root>svg:target{display:block}</style><svg fill="none" viewBox="0 0 260 260" id="favicons--favicon" xmlns="http://www.w3.org/2000/svg">
    <g clip-path="url(#aba)">
        <rect width="260" height="260" rx="40" fill="#000"/>
        <path fill="#fff" d="M16 44h227v173H16z"/>
        <path d="M13 13h234c7.18 0 13 5.82 13 13v208c0 7.18-5.82 13-13 13H13c-7.18 0-13-5.82-13-13V26c0-7.18 5.82-13 13-13Zm175.039 162.961L234 130l-45.961-45.962-18.385 18.385L197.231 130l-27.577 27.577 18.385 18.384ZM62.769 130l27.578-27.577-18.385-18.385L26 130l45.962 45.961 18.385-18.384L62.77 130Zm57.407 65 47.316-130h-27.668L92.508 195h27.668Z" fill="#000"/>
    </g>
    <defs>
        <clipPath id="aba">
            <rect width="260" height="260" rx="40" fill="#fff"/>
        </clipPath>
    </defs>
</svg><svg fill="none" viewBox="0 0 414 30" id="footer--footer-logo" xmlns="http://www.w3.org/2000/svg">
    <path d="M2.615 29.875c-.79 0-1.43-.235-1.92-.705C.232 28.672 0 28.008 0 27.178V2.905c0-.803.218-1.425.654-1.868.463-.442 1.09-.664 1.88-.664h10.052c3.078 0 5.476.789 7.192 2.366 1.716 1.549 2.574 3.734 2.574 6.556 0 2.821-.858 5.02-2.574 6.597-1.716 1.577-4.114 2.365-7.192 2.365H5.27v8.921c0 .83-.245 1.494-.735 1.992-.463.47-1.103.705-1.92.705Zm9.317-15.726c3.623 0 5.435-1.604 5.435-4.813 0-3.209-1.812-4.813-5.435-4.813h-6.66v9.626h6.66ZM62.274 26.431c.164.36.245.72.245 1.08 0 .636-.258 1.175-.776 1.618a2.481 2.481 0 0 1-1.716.663c-.436 0-.845-.11-1.226-.331-.382-.25-.681-.623-.9-1.12l-2.45-5.56H41.065l-2.452 5.56c-.218.497-.517.87-.899 1.12a2.478 2.478 0 0 1-1.266.332c-.627 0-1.2-.222-1.717-.664-.517-.443-.776-.982-.776-1.619 0-.36.082-.719.245-1.079L45.48 1.826c.246-.554.613-.968 1.104-1.245a3.177 3.177 0 0 1 1.634-.457c.572 0 1.104.153 1.594.457a2.53 2.53 0 0 1 1.144 1.245l11.32 24.605Zm-19.41-7.8h10.788L48.258 6.307l-5.394 12.324ZM112.12 1.784c.19-.553.49-.968.899-1.245a2.616 2.616 0 0 1 1.43-.415c.654 0 1.212.208 1.675.623.491.415.736.968.736 1.66 0 .249-.068.608-.204 1.078l-8.786 24.69a2.533 2.533 0 0 1-1.103 1.286 3.042 3.042 0 0 1-1.635.456 3.247 3.247 0 0 1-1.675-.456 2.337 2.337 0 0 1-1.063-1.287L95.611 8.631l-6.906 19.543a2.531 2.531 0 0 1-1.103 1.287 3.038 3.038 0 0 1-1.635.456 3.25 3.25 0 0 1-1.675-.456 2.382 2.382 0 0 1-1.022-1.287L74.485 3.485c-.137-.414-.205-.774-.205-1.078 0-.692.245-1.245.736-1.66a2.792 2.792 0 0 1 1.798-.623c.545 0 1.035.139 1.47.415.437.277.75.692.94 1.245l6.947 20.29L93.322 1.91c.191-.554.504-.982.94-1.287a2.31 2.31 0 0 1 1.43-.498c.518 0 .995.166 1.43.498.464.305.79.747.982 1.328l6.946 20.374 7.07-20.54ZM136.244 29.875c-.791 0-1.431-.248-1.921-.746-.463-.498-.695-1.148-.695-1.95V2.904c0-.803.218-1.425.654-1.868.463-.442 1.09-.664 1.88-.664h14.343c1.662 0 2.493.72 2.493 2.158 0 1.41-.831 2.116-2.493 2.116h-11.687v7.967h10.87c1.661 0 2.492.72 2.492 2.158 0 1.41-.831 2.116-2.492 2.116h-10.87v10.29c0 .803-.232 1.453-.695 1.95-.463.499-1.089.747-1.879.747ZM171.566 29.627c-.79 0-1.416-.222-1.88-.664-.435-.443-.653-1.065-.653-1.868V2.905c0-.803.218-1.425.653-1.868.464-.442 1.09-.664 1.88-.664h14.752c.79 0 1.403.18 1.839.54.436.36.653.871.653 1.535 0 .692-.217 1.231-.653 1.618-.436.36-1.049.54-1.839.54h-12.137v8.05h11.32c.79 0 1.403.18 1.838.539.436.36.654.885.654 1.577 0 .664-.218 1.175-.654 1.535-.435.36-1.048.54-1.838.54h-11.32v8.547h12.137c.79 0 1.403.194 1.839.581.436.36.653.885.653 1.577 0 .664-.217 1.175-.653 1.535-.436.36-1.049.54-1.839.54h-14.752ZM218.147 30c-2.779 0-5.217-.609-7.315-1.826-2.07-1.217-3.664-2.96-4.781-5.228-1.117-2.268-1.675-4.924-1.675-7.967 0-3.043.558-5.684 1.675-7.925 1.117-2.268 2.711-4.011 4.781-5.228C212.93.609 215.368 0 218.147 0c1.798 0 3.487.277 5.067.83 1.58.525 2.983 1.3 4.209 2.324.354.276.599.567.735.87.137.305.205.679.205 1.121 0 .609-.164 1.12-.491 1.536-.326.414-.721.622-1.185.622-.544 0-1.103-.194-1.675-.581-1.171-.885-2.261-1.494-3.269-1.826-1.008-.36-2.125-.54-3.351-.54-2.833 0-4.985.9-6.456 2.698-1.444 1.798-2.166 4.44-2.166 7.925 0 3.513.722 6.169 2.166 7.967 1.471 1.798 3.623 2.697 6.456 2.697 1.172 0 2.248-.18 3.228-.54 1.008-.359 2.139-.968 3.392-1.825.272-.166.545-.304.817-.415.273-.11.559-.166.858-.166.464 0 .859.208 1.185.623.327.414.491.926.491 1.535 0 .415-.068.788-.205 1.12-.136.304-.381.595-.735.871a13.425 13.425 0 0 1-4.209 2.366c-1.58.525-3.269.788-5.067.788ZM254.269 29.834c-.817 0-1.471-.235-1.961-.705-.464-.498-.695-1.148-.695-1.95V4.771h-7.437c-1.635 0-2.452-.733-2.452-2.2 0-1.466.817-2.199 2.452-2.199h20.145c1.635 0 2.452.734 2.452 2.2 0 1.466-.817 2.199-2.452 2.199h-7.437v22.406c0 .803-.245 1.453-.735 1.95-.463.47-1.09.706-1.88.706ZM284.765 29.875c-.79 0-1.431-.248-1.921-.746-.463-.498-.695-1.148-.695-1.95V2.821c0-.803.232-1.439.695-1.91.49-.497 1.131-.746 1.921-.746.817 0 1.457.249 1.92.747.491.47.736 1.106.736 1.909v24.356c0 .803-.245 1.453-.736 1.95-.463.499-1.103.747-1.92.747ZM318.732 30c-2.806 0-5.244-.609-7.314-1.826-2.043-1.217-3.623-2.96-4.74-5.228s-1.676-4.924-1.676-7.967c0-3.043.545-5.684 1.635-7.925 1.117-2.268 2.71-4.011 4.781-5.228C313.488.609 315.926 0 318.732 0s5.231.609 7.274 1.826c2.07 1.217 3.65 2.96 4.74 5.228 1.117 2.24 1.676 4.882 1.676 7.925s-.559 5.699-1.676 7.967-2.71 4.011-4.781 5.228c-2.043 1.217-4.454 1.826-7.233 1.826Zm0-4.274c2.643 0 4.7-.927 6.171-2.78 1.498-1.853 2.247-4.509 2.247-7.967 0-3.458-.749-6.1-2.247-7.925-1.471-1.853-3.528-2.78-6.171-2.78-2.669 0-4.753.927-6.252 2.78-1.471 1.826-2.206 4.467-2.206 7.925s.735 6.114 2.206 7.967c1.499 1.853 3.583 2.78 6.252 2.78ZM371.826.166c.763 0 1.362.249 1.798.747.463.47.695 1.106.695 1.909v24.356c0 .803-.232 1.453-.695 1.95-.463.499-1.062.747-1.798.747-.872 0-1.539-.318-2.002-.954l-14.915-19.71v17.967c0 .803-.218 1.453-.654 1.95-.436.499-1.035.747-1.798.747-.763 0-1.362-.248-1.798-.746-.436-.498-.654-1.148-.654-1.95V2.821c0-.803.232-1.439.695-1.91.463-.497 1.076-.746 1.838-.746.845 0 1.499.318 1.962.954l14.874 19.627V2.822c0-.803.218-1.439.654-1.91.463-.497 1.062-.746 1.798-.746ZM402.763 30c-2.098 0-4.087-.277-5.967-.83-1.852-.58-3.364-1.355-4.535-2.324-.627-.47-.94-1.134-.94-1.991 0-.581.163-1.08.49-1.494.354-.443.763-.664 1.226-.664.49 0 1.049.194 1.675.581 1.172.858 2.398 1.48 3.678 1.867 1.281.387 2.697.581 4.25.581 1.989 0 3.514-.346 4.577-1.037 1.062-.72 1.593-1.757 1.593-3.112 0-1.051-.504-1.854-1.512-2.407-.98-.58-2.628-1.134-4.944-1.66-2.397-.525-4.345-1.134-5.844-1.825-1.498-.692-2.628-1.577-3.391-2.656-.763-1.079-1.144-2.448-1.144-4.108 0-1.715.476-3.25 1.43-4.606.953-1.355 2.275-2.406 3.964-3.153C399.085.387 401.005 0 403.13 0c3.896 0 7.07 1.051 9.522 3.154.354.304.599.608.735.912.164.277.245.637.245 1.08 0 .58-.177 1.092-.531 1.535-.327.414-.722.622-1.185.622-.272 0-.531-.042-.776-.125a6.687 6.687 0 0 1-.899-.456c-1.117-.83-2.207-1.438-3.27-1.826-1.035-.415-2.315-.622-3.841-.622-1.852 0-3.323.387-4.413 1.162-1.062.747-1.594 1.798-1.594 3.153 0 1.134.477 2.006 1.431 2.614.953.609 2.574 1.176 4.862 1.702 2.425.553 4.386 1.175 5.885 1.867 1.525.664 2.683 1.521 3.473 2.572.817 1.052 1.226 2.365 1.226 3.942 0 1.715-.477 3.237-1.43 4.565-.926 1.3-2.248 2.323-3.964 3.07-1.689.72-3.637 1.079-5.843 1.079Z" fill="#333"/>
</svg><svg fill="none" viewBox="0 0 414 30" id="logo" xmlns="http://www.w3.org/2000/svg">
    <path d="M2.615 29.875c-.79 0-1.43-.235-1.92-.705C.232 28.672 0 28.008 0 27.178V2.905c0-.803.218-1.425.654-1.868.463-.442 1.09-.664 1.88-.664h10.052c3.078 0 5.476.789 7.192 2.366 1.716 1.549 2.574 3.734 2.574 6.556 0 2.821-.858 5.02-2.574 6.597-1.716 1.577-4.114 2.365-7.192 2.365H5.27v8.921c0 .83-.245 1.494-.735 1.992-.463.47-1.103.705-1.92.705Zm9.317-15.726c3.623 0 5.435-1.604 5.435-4.813 0-3.209-1.812-4.813-5.435-4.813h-6.66v9.626h6.66ZM62.274 26.431c.164.36.245.72.245 1.08 0 .636-.258 1.175-.776 1.618a2.481 2.481 0 0 1-1.716.663c-.436 0-.845-.11-1.226-.331-.382-.25-.681-.623-.9-1.12l-2.45-5.56H41.065l-2.452 5.56c-.218.497-.517.87-.899 1.12a2.478 2.478 0 0 1-1.266.332c-.627 0-1.2-.222-1.717-.664-.517-.443-.776-.982-.776-1.619 0-.36.082-.719.245-1.079L45.48 1.826c.246-.554.613-.968 1.104-1.245a3.177 3.177 0 0 1 1.634-.457c.572 0 1.104.153 1.594.457a2.53 2.53 0 0 1 1.144 1.245l11.32 24.605Zm-19.41-7.8h10.788L48.258 6.307l-5.394 12.324ZM112.12 1.784c.19-.553.49-.968.899-1.245a2.616 2.616 0 0 1 1.43-.415c.654 0 1.212.208 1.675.623.491.415.736.968.736 1.66 0 .249-.068.608-.204 1.078l-8.786 24.69a2.533 2.533 0 0 1-1.103 1.286 3.042 3.042 0 0 1-1.635.456 3.247 3.247 0 0 1-1.675-.456 2.337 2.337 0 0 1-1.063-1.287L95.611 8.631l-6.906 19.543a2.53 2.53 0 0 1-1.103 1.287 3.038 3.038 0 0 1-1.635.456 3.25 3.25 0 0 1-1.675-.456 2.382 2.382 0 0 1-1.022-1.287L74.485 3.485c-.137-.414-.205-.774-.205-1.078 0-.692.245-1.245.736-1.66a2.792 2.792 0 0 1 1.798-.623c.545 0 1.035.139 1.47.415.437.277.75.692.94 1.245l6.947 20.29L93.322 1.91c.191-.554.504-.982.94-1.287a2.31 2.31 0 0 1 1.43-.498c.518 0 .995.166 1.43.498.464.305.79.747.981 1.328l6.947 20.374 7.07-20.54ZM136.244 29.875c-.791 0-1.431-.248-1.921-.746-.463-.498-.695-1.148-.695-1.95V2.904c0-.803.218-1.425.654-1.868.463-.442 1.09-.664 1.88-.664h14.343c1.662 0 2.493.72 2.493 2.158 0 1.41-.831 2.116-2.493 2.116h-11.687v7.967h10.87c1.661 0 2.492.72 2.492 2.158 0 1.41-.831 2.116-2.492 2.116h-10.87v10.29c0 .803-.232 1.453-.695 1.95-.463.499-1.089.747-1.879.747ZM171.566 29.627c-.79 0-1.416-.222-1.88-.664-.435-.443-.653-1.065-.653-1.868V2.905c0-.803.218-1.425.653-1.868.464-.442 1.09-.664 1.88-.664h14.752c.79 0 1.403.18 1.839.54.436.36.653.871.653 1.535 0 .692-.217 1.231-.653 1.618-.436.36-1.049.54-1.839.54h-12.137v8.05h11.32c.79 0 1.403.18 1.838.539.436.36.654.885.654 1.577 0 .664-.218 1.175-.654 1.535-.435.36-1.048.54-1.838.54h-11.32v8.547h12.137c.79 0 1.403.194 1.839.581.436.36.653.885.653 1.577 0 .664-.217 1.175-.653 1.535-.436.36-1.049.54-1.839.54h-14.752ZM218.147 30c-2.779 0-5.217-.609-7.315-1.826-2.07-1.217-3.664-2.96-4.781-5.228-1.117-2.268-1.675-4.924-1.675-7.967 0-3.043.558-5.684 1.675-7.925 1.117-2.268 2.711-4.011 4.781-5.228C212.93.609 215.368 0 218.147 0c1.798 0 3.487.277 5.067.83 1.58.525 2.983 1.3 4.209 2.324.354.276.599.567.735.87.137.305.205.679.205 1.121 0 .609-.164 1.12-.491 1.536-.326.414-.722.622-1.185.622-.544 0-1.103-.194-1.675-.581-1.171-.885-2.261-1.494-3.269-1.826-1.008-.36-2.125-.54-3.351-.54-2.833 0-4.985.9-6.456 2.698-1.444 1.798-2.166 4.44-2.166 7.925 0 3.513.722 6.169 2.166 7.967 1.471 1.798 3.623 2.697 6.456 2.697 1.172 0 2.248-.18 3.228-.54 1.008-.359 2.139-.968 3.392-1.825.272-.166.545-.304.817-.415.273-.11.559-.166.858-.166.463 0 .859.208 1.185.623.327.414.491.926.491 1.535 0 .415-.068.788-.205 1.12-.136.304-.381.595-.735.871a13.425 13.425 0 0 1-4.209 2.366c-1.58.525-3.269.788-5.067.788ZM254.269 29.834c-.817 0-1.471-.235-1.962-.705-.463-.498-.694-1.148-.694-1.95V4.771h-7.437c-1.635 0-2.452-.733-2.452-2.2 0-1.466.817-2.199 2.452-2.199h20.145c1.635 0 2.452.734 2.452 2.2 0 1.466-.817 2.199-2.452 2.199h-7.437v22.406c0 .803-.245 1.453-.735 1.95-.463.47-1.09.706-1.88.706ZM284.765 29.875c-.79 0-1.431-.248-1.921-.746-.463-.498-.695-1.148-.695-1.95V2.821c0-.803.232-1.439.695-1.91.49-.497 1.131-.746 1.921-.746.817 0 1.457.249 1.92.747.49.47.736 1.106.736 1.909v24.356c0 .803-.246 1.453-.736 1.95-.463.499-1.103.747-1.92.747ZM318.732 30c-2.806 0-5.244-.609-7.314-1.826-2.043-1.217-3.624-2.96-4.74-5.228-1.117-2.268-1.676-4.924-1.676-7.967 0-3.043.545-5.684 1.635-7.925 1.117-2.268 2.71-4.011 4.781-5.228C313.488.609 315.926 0 318.732 0s5.231.609 7.274 1.826c2.07 1.217 3.65 2.96 4.74 5.228 1.117 2.24 1.676 4.882 1.676 7.925s-.559 5.699-1.676 7.967-2.71 4.011-4.781 5.228c-2.043 1.217-4.454 1.826-7.233 1.826Zm0-4.274c2.643 0 4.7-.927 6.171-2.78 1.498-1.853 2.247-4.509 2.247-7.967 0-3.458-.749-6.1-2.247-7.925-1.471-1.853-3.528-2.78-6.171-2.78-2.669 0-4.753.927-6.252 2.78-1.471 1.826-2.206 4.467-2.206 7.925s.735 6.114 2.206 7.967c1.499 1.853 3.583 2.78 6.252 2.78ZM371.826.166c.763 0 1.362.249 1.798.747.463.47.695 1.106.695 1.909v24.356c0 .803-.232 1.453-.695 1.95-.463.499-1.062.747-1.798.747-.872 0-1.539-.318-2.002-.954l-14.915-19.71v17.967c0 .803-.218 1.453-.654 1.95-.436.499-1.035.747-1.798.747-.763 0-1.362-.248-1.798-.746-.436-.498-.654-1.148-.654-1.95V2.821c0-.803.232-1.439.695-1.91.463-.497 1.076-.746 1.838-.746.845 0 1.499.318 1.962.954l14.874 19.627V2.822c0-.803.218-1.439.654-1.91.463-.497 1.062-.746 1.798-.746ZM402.763 30c-2.098 0-4.087-.277-5.967-.83-1.852-.58-3.364-1.355-4.535-2.324-.627-.47-.94-1.134-.94-1.991 0-.581.163-1.08.49-1.494.354-.443.763-.664 1.226-.664.49 0 1.049.194 1.675.581 1.172.858 2.398 1.48 3.678 1.867 1.281.387 2.697.581 4.25.581 1.989 0 3.514-.346 4.577-1.037 1.062-.72 1.593-1.757 1.593-3.112 0-1.051-.504-1.854-1.512-2.407-.98-.58-2.628-1.134-4.944-1.66-2.397-.525-4.345-1.134-5.844-1.825-1.498-.692-2.628-1.577-3.391-2.656-.763-1.079-1.144-2.448-1.144-4.108 0-1.715.476-3.25 1.43-4.606.953-1.355 2.275-2.406 3.964-3.153C399.085.387 401.005 0 403.13 0c3.896 0 7.07 1.051 9.521 3.154.355.304.6.608.736.912.163.277.245.637.245 1.08 0 .58-.177 1.092-.531 1.535-.327.414-.722.622-1.185.622-.272 0-.531-.042-.776-.125a6.685 6.685 0 0 1-.899-.456c-1.117-.83-2.207-1.438-3.27-1.826-1.035-.415-2.315-.622-3.841-.622-1.852 0-3.323.387-4.413 1.162-1.062.747-1.594 1.798-1.594 3.153 0 1.134.477 2.006 1.431 2.614.953.609 2.574 1.176 4.862 1.702 2.425.553 4.386 1.175 5.885 1.867 1.525.664 2.683 1.521 3.473 2.572.817 1.052 1.226 2.365 1.226 3.942 0 1.715-.477 3.237-1.43 4.565-.926 1.3-2.248 2.323-3.964 3.07-1.689.72-3.637 1.079-5.843 1.079Z" fill="#EDB24E"/>
</svg><svg fill="none" viewBox="0 0 24 25" id="svgicons--heart" xmlns="http://www.w3.org/2000/svg">
    <path fill-rule="evenodd" clip-rule="evenodd" d="M12.692 7.584a1 1 0 0 1-1.384 0l-.693-.665A4.5 4.5 0 0 0 3 10.166c0 2.383 1.29 4.35 3.152 5.967 1.863 1.618 4.091 2.691 5.423 3.239.278.114.572.114.85 0 1.332-.548 3.56-1.62 5.423-3.239C19.71 14.517 21 12.55 21 10.167a4.5 4.5 0 0 0-7.615-3.248l-.693.665ZM12 5.476a6.5 6.5 0 0 0-11 4.69c0 6.369 6.97 9.886 9.814 11.055a3.096 3.096 0 0 0 2.372 0C16.03 20.051 23 16.535 23 10.167a6.5 6.5 0 0 0-11-4.69Z" fill="#141718"/>
</svg><svg fill="none" viewBox="0 0 24 24" id="svgicons--heart-line" xmlns="http://www.w3.org/2000/svg">
    <path d="M12.001 4.529a5.998 5.998 0 0 1 8.242.228 6 6 0 0 1 .236 8.236l-8.48 8.492-8.478-8.492a6 6 0 0 1 8.48-8.464Zm6.826 1.641a3.998 3.998 0 0 0-5.49-.153l-1.335 1.198-1.336-1.197a4 4 0 0 0-5.686 5.605L12 18.654l7.02-7.03a4 4 0 0 0-.193-5.454Z" fill="#000"/>
</svg><svg fill="none" viewBox="0 0 24 24" id="svgicons--id-card-line" xmlns="http://www.w3.org/2000/svg">
    <path d="M3 6h18v12H3V6ZM2 4a1 1 0 0 0-1 1v14a1 1 0 0 0 1 1h20a1 1 0 0 0 1-1V5a1 1 0 0 0-1-1H2Zm11 4h6v2h-6V8Zm5 4h-5v2h5v-2Zm-7.5-2a2.5 2.5 0 1 1-5 0 2.5 2.5 0 0 1 5 0ZM8 13.5A3.5 3.5 0 0 0 4.5 17h7A3.5 3.5 0 0 0 8 13.5Z" fill="#000"/>
</svg><svg fill="none" viewBox="0 0 24 24" id="svgicons--search" xmlns="http://www.w3.org/2000/svg">
    <path d="M18.5 18.5 22 22m-1-10.5a9.5 9.5 0 1 0-19 0 9.5 9.5 0 0 0 19 0Z" stroke="#141718" stroke-width="1.5" stroke-linecap="round" stroke-linejoin="round"/>
</svg><svg fill="none" viewBox="0 0 24 24" id="svgicons--search-line" xmlns="http://www.w3.org/2000/svg">
    <path d="m18.031 16.617 4.283 4.282-1.415 1.415-4.282-4.283A8.96 8.96 0 0 1 11 20c-4.968 0-9-4.032-9-9s4.032-9 9-9 9 4.032 9 9a8.96 8.96 0 0 1-1.969 5.617Zm-2.006-.742A6.977 6.977 0 0 0 18 11c0-3.867-3.133-7-7-7s-7 3.133-7 7 3.133 7 7 7a6.977 6.977 0 0 0 4.875-1.975l.15-.15Z" fill="#000"/>
</svg><svg fill="none" viewBox="0 0 21 20" id="svgicons--star" xmlns="http://www.w3.org/2000/svg">
    <path d="M9.737 1.168c.344-.817 1.515-.817 1.859 0l2.028 4.819c.145.344.473.579.85.609l5.265.417c.892.07 1.254 1.17.574 1.746l-4.012 3.395a.987.987 0 0 0-.324.986l1.226 5.076c.207.86-.74 1.54-1.503 1.08l-4.509-2.721a1.016 1.016 0 0 0-1.049 0l-4.509 2.72c-.763.461-1.71-.219-1.503-1.079l1.226-5.076a.987.987 0 0 0-.324-.986L1.02 8.76c-.68-.575-.318-1.675.574-1.746l5.266-.417c.376-.03.704-.265.849-.61l2.028-4.818Z" fill="#F9B811"/>
</svg><svg fill="none" viewBox="0 0 21 20" id="svgicons--star-off" xmlns="http://www.w3.org/2000/svg">
    <path d="M9.737 1.168c.344-.817 1.515-.817 1.858 0l2.03 4.819c.144.344.472.579.848.609l5.266.417c.892.07 1.254 1.17.574 1.746l-4.012 3.395a.987.987 0 0 0-.324.986l1.226 5.076c.207.86-.74 1.54-1.504 1.08l-4.508-2.721a1.016 1.016 0 0 0-1.05 0l-4.508 2.72c-.764.461-1.71-.219-1.503-1.079l1.226-5.076a.987.987 0 0 0-.324-.986L1.019 8.76c-.68-.575-.318-1.675.575-1.746l5.266-.417c.376-.03.704-.265.848-.61l2.03-4.818Z" fill="#B0B0B0"/>
</svg><svg fill="none" viewBox="0 0 17 17" id="svgicons--star-small" xmlns="http://www.w3.org/2000/svg">
    <path d="M7.742 1.019c.292-.692 1.283-.692 1.574 0L11.035 5.1c.123.291.4.49.719.516l4.46.353c.756.06 1.063.991.487 1.479l-3.399 2.876a.836.836 0 0 0-.274.835l1.038 4.3c.176.729-.626 1.304-1.273.914l-3.82-2.304a.861.861 0 0 0-.888 0l-3.819 2.304c-.647.39-1.45-.185-1.273-.914l1.038-4.3a.836.836 0 0 0-.275-.835L.358 7.449c-.576-.488-.27-1.42.486-1.48l4.461-.352a.852.852 0 0 0 .719-.516l1.718-4.082Z" fill="#F9B811"/>
</svg><svg fill="none" viewBox="0 0 24 24" id="svgicons--user" xmlns="http://www.w3.org/2000/svg">
    <path d="M18.559 19.549a7.003 7.003 0 0 0-13.118 0m13.118 0A9.976 9.976 0 0 0 22 12c0-5.523-4.477-10-10-10S2 6.477 2 12a9.977 9.977 0 0 0 3.441 7.549m13.118 0A9.961 9.961 0 0 1 12 22a9.961 9.961 0 0 1-6.559-2.451M15 9a3 3 0 1 1-6 0 3 3 0 0 1 6 0Z" stroke="#141718" stroke-width="1.5" stroke-linejoin="round"/>
</svg><svg fill="none" viewBox="0 0 24 24" id="svgicons--user-star-line" xmlns="http://www.w3.org/2000/svg">
    <path d="M12 14v2a6 6 0 0 0-6 6H4a8 8 0 0 1 8-8Zm0-1c-3.315 0-6-2.685-6-6s2.685-6 6-6 6 2.685 6 6-2.685 6-6 6Zm0-2c2.21 0 4-1.79 4-4s-1.79-4-4-4-4 1.79-4 4 1.79 4 4 4Zm6 10.5-2.939 1.545.561-3.273-2.377-2.317 3.286-.477L18 14l1.47 2.977 3.285.478-2.377 2.318.56 3.272L18 21.5Z" fill="#000"/>
</svg><svg viewBox="0 0 497 497" id="svgicons--website" xmlns="http://www.w3.org/2000/svg">
    <path d="M497 128.5v312c0 11.046-8.954 20-20 20H20c-11.046 0-20-8.954-20-20v-312z" fill="#faf8f8"/>
    <path d="M290.498 294.5c0-23.196-18.804-42-42-42a41.823 41.823 0 0 0-19.482 4.782c-13.386 7.021-19.327 21.053-19.327 37.218 0 23.196 15.613 36.457 38.809 36.457 16.214 0 30.282-3.645 37.282-17.099a41.814 41.814 0 0 0 4.718-19.358z" fill="#dc4955"/>
    <path d="M286.468 312.47c-6.73 14.21-21.2 24.03-37.97 24.03-23.2 0-42-18.8-42-42 0-16.77 9.82-31.24 24.03-37.97-2.59 5.45-4.03 11.54-4.03 17.97 0 23.2 18.8 42 42 42 6.43 0 12.52-1.44 17.97-4.03z" fill="#d82f3c"/>
    <path d="M429.496 294.5c0-23.196-18.804-42-42-42a41.823 41.823 0 0 0-19.482 4.782c-13.386 7.021-19.327 21.053-19.327 37.218 0 23.196 15.613 36.457 38.809 36.457 16.214 0 30.282-3.645 37.282-17.099a41.814 41.814 0 0 0 4.718-19.358z" fill="#b7e546"/>
    <path d="M425.466 312.47c-6.73 14.21-21.2 24.03-37.97 24.03-23.2 0-42-18.8-42-42 0-16.77 9.82-31.24 24.03-37.97-2.59 5.45-4.03 11.54-4.03 17.97 0 23.2 18.8 42 42 42 6.43 0 12.52-1.44 17.97-4.03z" fill="#abd641"/>
    <path d="M497 148.5v-20l-276.011-12.798L0 128.5v312c0 11.046 8.954 20 20 20h15c-8.28 0-15-6.72-15-15v-291a6 6 0 0 1 6-6z" fill="#f0e9e6"/>
    <path d="M497 56.5V129H0V56.5c0-11.046 8.954-20 20-20h457c11.046 0 20 8.954 20 20z" fill="#5d748a"/>
    <g fill="#3f597d">
        <path d="M227.758 108.5c-8.255 0-14.947-6.716-14.947-15s6.692-15 14.947-15h208.315c8.255 0 14.947 6.716 14.947 15s-6.692 15-14.947 15z"/>
        <ellipse cx="160.869" cy="93.5" rx="14.947" ry="15"/>
        <path d="m171.361 104.184 12.874-12.869-13.139 1.179zM150.592 82.608l12.562-12.516-2.693 10.408z"/>
        <ellipse cx="98.034" cy="93.5" rx="14.947" ry="15"/>
        <path d="m108.553 104.157 12.382-12.499-12.674.836zM87.757 82.608l12.371-12.459L97.626 80.5z"/>
        <ellipse cx="32.947" cy="93.5" rx="14.947" ry="15"/>
        <path d="M43.769 103.846 56.49 90.66l-13.139 1.381zM22.67 82.608 34.292 70.57l-1.753 9.93z"/>
    </g>
    <ellipse cx="173.849" cy="80.5" fill="#b7e546" rx="14.947" ry="15"/>
    <path d="m217.514 82.577 12.971-12.991-3.025 14.276zM446.83 103.915l13.149-13.179-10.185 3.381z" fill="#3f597d"/>
    <ellipse cx="110.946" cy="80.5" fill="#ffbf54" rx="14.947" ry="15"/>
    <ellipse cx="45.495" cy="80.5" fill="#dc4955" rx="14.947" ry="15"/>
    <path d="M240.737 95.5c-8.255 0-14.947-6.716-14.947-15s6.692-15 14.947-15h208.315c8.255 0 14.947 6.716 14.947 15s-6.692 15-14.947 15z" fill="#faf8f8"/>
    <path d="m135.893 215 226.628 2c5.523 0 10-4.477 10-10l3.479-7v-30c0-5.523-4.477-10-10-10H142l-6.107 5c-5.523 0-10 4.477-10 10v30c0 5.523 4.477 10 10 10z" fill="#aad8de"/>
    <path d="M376 200v10c0 5.523-4.477 10-10 10H132c-5.523 0-10-4.477-10-10v-40c0-5.523 4.477-10 10-10h10v33a7 7 0 0 0 7 7z" fill="#94ccd4"/>
    <path d="M151.5 294.5c0-23.196-18.804-42-42-42a41.823 41.823 0 0 0-19.482 4.782c-13.386 7.021-19.327 21.053-19.327 37.218 0 23.196 15.613 36.457 38.809 36.457 16.214 0 30.282-3.645 37.282-17.099A41.814 41.814 0 0 0 151.5 294.5z" fill="#ffbf54"/>
    <path d="M147.47 312.47c-6.73 14.21-21.2 24.03-37.97 24.03-23.2 0-42-18.8-42-42 0-16.77 9.82-31.24 24.03-37.97-2.59 5.45-4.03 11.54-4.03 17.97 0 23.2 18.8 42 42 42 6.43 0 12.52-1.44 17.97-4.03z" fill="#ffa442"/>
    <path d="M149.5 374h-70a7.5 7.5 0 0 1 0-15h70a7.5 7.5 0 0 1 0 15zM149.5 404h-80a7.5 7.5 0 0 1 0-15h80a7.5 7.5 0 0 1 0 15zM149.5 434h-80a7.5 7.5 0 0 1 0-15h80a7.5 7.5 0 0 1 0 15zM288.5 374h-70a7.5 7.5 0 0 1 0-15h70c4.143 0 7.5 3.358 7.5 7.5s-3.357 7.5-7.5 7.5zM288.5 404h-80a7.5 7.5 0 0 1 0-15h80c4.143 0 7.5 3.358 7.5 7.5s-3.357 7.5-7.5 7.5zM288.5 434h-80a7.5 7.5 0 0 1 0-15h80c4.143 0 7.5 3.358 7.5 7.5s-3.357 7.5-7.5 7.5zM427.5 374h-70c-4.143 0-7.5-3.358-7.5-7.5s3.357-7.5 7.5-7.5h70c4.143 0 7.5 3.358 7.5 7.5s-3.357 7.5-7.5 7.5zM427.5 404h-80c-4.143 0-7.5-3.358-7.5-7.5s3.357-7.5 7.5-7.5h80c4.143 0 7.5 3.358 7.5 7.5s-3.357 7.5-7.5 7.5zM427.5 434h-80c-4.143 0-7.5-3.358-7.5-7.5s3.357-7.5 7.5-7.5h80c4.143 0 7.5 3.358 7.5 7.5s-3.357 7.5-7.5 7.5z" fill="#f0e9e6"/>
</svg><svg data-name="Capa 1" viewBox="0 0 20 19.84" id="ui--arrow_left-20" xmlns="http://www.w3.org/2000/svg">
    <path d="M16.13 9.58H4.81l2.93-2.66a.38.38 0 0 0-.5-.56L3.62 9.64a.37.37 0 0 0-.13.28.37.37 0 0 0 .13.27l3.62 3.29a.38.38 0 0 0 .25.09.39.39 0 0 0 .28-.12.39.39 0 0 0 0-.53l-2.89-2.59h11.25a.38.38 0 0 0 .38-.38.37.37 0 0 0-.38-.37Z"/>
</svg><svg fill="none" viewBox="0 0 24 24" id="ui--arrow_left-24" xmlns="http://www.w3.org/2000/svg">
    <path d="M3.99 11.75h16.26M8.793 6.206 3.25 11.75l5.543 5.544" stroke="#000" stroke-linecap="round"/>
</svg><svg fill="none" viewBox="0 0 24 24" id="ui--arrow_right-24" xmlns="http://www.w3.org/2000/svg">
    <path d="M19.51 11.75H3.25M14.707 6.206l5.543 5.544-5.543 5.544" stroke="#000" stroke-linecap="round"/>
</svg><svg viewBox="0 0 256 256" id="ui--arrow_right-256" xmlns="http://www.w3.org/2000/svg">
    <path fill="none" d="M0 0h256v256H0z"/>
    <path fill="none" stroke="#000" stroke-linecap="round" stroke-linejoin="round" stroke-width="12" d="M40 128h176M144 56l72 72-72 72"/>
</svg><svg viewBox="0 0 32 32" id="ui--arrows_left-32" xmlns="http://www.w3.org/2000/svg">
    <g data-name="Layer 2">
        <path d="M13 26a1 1 0 0 1-.71-.29l-9-9a1 1 0 0 1 0-1.42l9-9a1 1 0 1 1 1.42 1.42L5.41 16l8.3 8.29a1 1 0 0 1 0 1.42A1 1 0 0 1 13 26Z"/>
        <path d="M28 17H4a1 1 0 0 1 0-2h24a1 1 0 0 1 0 2Z"/>
    </g>
    <path style="fill:none" d="M0 0h32v32H0z"/>
</svg><svg style="enable-background:new 0 0 512 512" viewBox="0 0 512 512" xml:space="preserve" id="ui--close_round" xmlns="http://www.w3.org/2000/svg">
    <path d="M437.5 386.6 306.9 256l130.6-130.6c14.1-14.1 14.1-36.8 0-50.9-14.1-14.1-36.8-14.1-50.9 0L256 205.1 125.4 74.5c-14.1-14.1-36.8-14.1-50.9 0-14.1 14.1-14.1 36.8 0 50.9L205.1 256 74.5 386.6c-14.1 14.1-14.1 36.8 0 50.9 14.1 14.1 36.8 14.1 50.9 0L256 306.9l130.6 130.6c14.1 14.1 36.8 14.1 50.9 0 14-14.1 14-36.9 0-50.9z" fill="#dac5a7"/>
</svg><svg fill="none" viewBox="0 0 24 24" id="ui--menu_right" xmlns="http://www.w3.org/2000/svg">
    <path d="M22 18.005c0 .55-.446.995-.995.995h-8.01a.995.995 0 0 1 0-1.99h8.01c.55 0 .995.445.995.995ZM22 12c0 .55-.446.995-.995.995H2.995a.995.995 0 1 1 0-1.99h18.01c.55 0 .995.446.995.995ZM21.005 6.99a.995.995 0 0 0 0-1.99H8.995a.995.995 0 1 0 0 1.99h12.01Z" fill="#dac5a7"/>
</svg><svg fill="none" viewBox="0 0 19 18" id="ui--ui-arrow" xmlns="http://www.w3.org/2000/svg">
    <path d="M14.255 4.5v7.313a.422.422 0 0 1-.844 0V5.52L5.13 13.795a.418.418 0 0 1-.591-.59l8.276-8.283H6.52a.422.422 0 0 1 0-.844h7.312a.422.422 0 0 1 .422.422Z" fill="#DAC5A7"/>
</svg><svg fill="none" viewBox="0 0 20 20" id="ui--ui-arrow-down" xmlns="http://www.w3.org/2000/svg">
    <path d="m15.953 11.578-5.625 5.625a.452.452 0 0 1-.656 0l-5.625-5.625a.464.464 0 1 1 .656-.656l4.828 4.82V3.125a.469.469 0 1 1 .938 0v12.617l4.828-4.82a.464.464 0 1 1 .656.656Z" fill="#DAC5A7"/>
</svg><svg fill="none" viewBox="0 0 20 20" id="ui--ui-arrow-top" xmlns="http://www.w3.org/2000/svg">
    <path d="M15.953 9.078a.453.453 0 0 1-.656 0l-4.828-4.82v12.617a.47.47 0 0 1-.938 0V4.258l-4.828 4.82a.464.464 0 1 1-.656-.656l5.625-5.625a.453.453 0 0 1 .656 0l5.625 5.625a.454.454 0 0 1 0 .656Z" fill="#DAC5A7"/>
</svg><svg fill="none" viewBox="0 0 18 19" id="ui--ui-arrow-top-right" xmlns="http://www.w3.org/2000/svg">
    <path d="M13.922 5v7.313a.422.422 0 1 1-.844 0V6.02l-8.283 8.275a.418.418 0 0 1-.59-.59l8.275-8.283H6.187a.422.422 0 0 1 0-.844H13.5a.422.422 0 0 1 .422.422Z" fill="#0E0E0E"/>
</svg><svg fill="none" viewBox="0 0 18 19" id="ui--ui-arrow-top-right-inverse" xmlns="http://www.w3.org/2000/svg">
    <path d="M13.922 5v7.313a.422.422 0 1 1-.844 0V6.02l-8.283 8.275a.418.418 0 0 1-.59-.59l8.275-8.283H6.187a.422.422 0 0 1 0-.844H13.5a.422.422 0 0 1 .422.422Z" fill="#dac5a7"/>
</svg><svg fill="none" viewBox="0 0 33 32" id="ui--ui-link-icon" xmlns="http://www.w3.org/2000/svg">
    <g filter="url(#baa)">
        <rect x=".667" width="32" height="32" rx="16" fill="#DAC5A7" fill-opacity=".05"/>
        <rect x="1.167" y=".5" width="31" height="31" rx="15.5" stroke="#DAC5A7" stroke-opacity=".15"/>
        <path d="M21.589 11.5v7.313a.422.422 0 0 1-.844 0V12.52l-8.283 8.275a.418.418 0 0 1-.59-.59l8.275-8.283h-6.293a.422.422 0 0 1 0-.844h7.313a.422.422 0 0 1 .422.422Z" fill="#DAC5A7"/>
    </g>
    <defs>
        <filter id="baa" x="-29.333" y="-30" width="92" height="92" filterUnits="userSpaceOnUse" color-interpolation-filters="sRGB">
            <feFlood flood-opacity="0" result="BackgroundImageFix"/>
            <feGaussianBlur in="BackgroundImageFix" stdDeviation="15"/>
            <feComposite in2="SourceAlpha" operator="in" result="effect1_backgroundBlur_5200_70"/>
            <feBlend in="SourceGraphic" in2="effect1_backgroundBlur_5200_70" result="shape"/>
        </filter>
    </defs>
</svg></svg>