<?xml version="1.0" encoding="utf-8"?><!DOCTYPE svg  PUBLIC '-//W3C//DTD SVG 1.1//EN'  'http://www.w3.org/Graphics/SVG/1.1/DTD/svg11.dtd'><svg xmlns="http://www.w3.org/2000/svg" xmlns:xlink="http://www.w3.org/1999/xlink"><symbol viewBox="0 0 260 260" id="favicons--favicon" xmlns="http://www.w3.org/2000/svg">
    <g clip-path="url(#abclip0_3844_211)">
        <rect width="260" height="260" rx="40"/>
        <rect x="16" y="44" width="227" height="173"/>
        <path d="M13 13H247C254.18 13 260 18.8204 260 26V234C260 241.18 254.18 247 247 247H13C5.82036 247 0 241.18 0 234V26C0 18.8204 5.82036 13 13 13ZM188.039 175.961L234 130L188.039 84.0381L169.654 102.423L197.231 130L169.654 157.577L188.039 175.961ZM62.7696 130L90.3467 102.423L71.9619 84.0381L26 130L71.9619 175.961L90.3467 157.577L62.7696 130ZM120.176 195L167.492 65H139.824L92.5076 195H120.176Z"/>
    </g>
    <defs>
        <clipPath id="abclip0_3844_211">
            <rect width="260" height="260" rx="40"/>
        </clipPath>
    </defs>
</symbol><symbol viewBox="0 0 414 30" id="footer--footer-logo" xmlns="http://www.w3.org/2000/svg">
    <path d="M2.61526 29.8755C1.82523 29.8755 1.18504 29.6404 0.694678 29.1701C0.231559 28.6722 0 28.0083 0 27.1784V2.90456C0 2.10235 0.217938 1.47995 0.653815 1.03735C1.11693 0.594745 1.74351 0.373444 2.53353 0.373444H12.5859C15.6643 0.373444 18.0616 1.16183 19.7779 2.73859C21.4942 4.28769 22.3523 6.47303 22.3523 9.29461C22.3523 12.1162 21.4942 14.3154 19.7779 15.8921C18.0616 17.4689 15.6643 18.2573 12.5859 18.2573H5.27138V27.1784C5.27138 28.0083 5.0262 28.6722 4.53584 29.1701C4.07272 29.6404 3.43253 29.8755 2.61526 29.8755ZM11.9321 14.1494C15.5554 14.1494 17.367 12.545 17.367 9.3361C17.367 6.12725 15.5554 4.52282 11.9321 4.52282H5.27138V14.1494H11.9321Z"/>
    <path d="M62.2743 26.4315C62.4378 26.7912 62.5195 27.1508 62.5195 27.5104C62.5195 28.1466 62.2607 28.686 61.7431 29.1286C61.2527 29.5712 60.6806 29.7925 60.0268 29.7925C59.5909 29.7925 59.1823 29.6819 58.8009 29.4606C58.4195 29.2116 58.1198 28.8382 57.9019 28.3403L55.4501 22.7801H41.0662L38.6144 28.3403C38.3964 28.8382 38.0968 29.2116 37.7154 29.4606C37.334 29.6819 36.9117 29.7925 36.4486 29.7925C35.822 29.7925 35.2499 29.5712 34.7323 29.1286C34.2147 28.686 33.9559 28.1466 33.9559 27.5104C33.9559 27.1508 34.0377 26.7912 34.2011 26.4315L45.4794 1.82573C45.7246 1.27248 46.0924 0.857538 46.5827 0.580913C47.1003 0.276626 47.6452 0.124482 48.2173 0.124482C48.7894 0.124482 49.3206 0.276626 49.8109 0.580913C50.3285 0.857538 50.7099 1.27248 50.9551 1.82573L62.2743 26.4315ZM42.8642 18.6307H53.6521L48.2581 6.30705L42.8642 18.6307Z"/>
    <path d="M112.12 1.78423C112.31 1.23098 112.61 0.816045 113.019 0.53942C113.455 0.262795 113.931 0.124482 114.449 0.124482C115.103 0.124482 115.661 0.331951 116.124 0.746888C116.615 1.16183 116.86 1.71508 116.86 2.40664C116.86 2.6556 116.792 3.01522 116.656 3.48548L107.87 28.1743C107.652 28.7275 107.284 29.1563 106.767 29.4606C106.276 29.7649 105.731 29.917 105.132 29.917C104.533 29.917 103.974 29.7649 103.457 29.4606C102.939 29.1563 102.585 28.7275 102.394 28.1743L95.6109 8.63071L88.705 28.1743C88.487 28.7275 88.1193 29.1563 87.6017 29.4606C87.1113 29.7649 86.5664 29.917 85.9671 29.917C85.3678 29.917 84.8093 29.7649 84.2917 29.4606C83.8013 29.1563 83.4608 28.7275 83.2701 28.1743L74.4845 3.48548C74.3483 3.07054 74.2802 2.71093 74.2802 2.40664C74.2802 1.71508 74.5254 1.16183 75.0157 0.746888C75.5333 0.331951 76.1326 0.124482 76.8137 0.124482C77.3585 0.124482 77.8489 0.262795 78.2848 0.53942C78.7207 0.816045 79.034 1.23098 79.2246 1.78423L86.1714 22.0747L93.3225 1.90871C93.5132 1.35546 93.8265 0.926695 94.2624 0.622406C94.6983 0.290457 95.175 0.124482 95.6926 0.124482C96.2102 0.124482 96.687 0.290457 97.1228 0.622406C97.586 0.926695 97.9129 1.3693 98.1036 1.95021L105.05 22.3237L112.12 1.78423Z"/>
    <path d="M136.244 29.8755C135.453 29.8755 134.813 29.6266 134.323 29.1286C133.86 28.6307 133.628 27.9806 133.628 27.1784V2.90456C133.628 2.10235 133.846 1.47995 134.282 1.03735C134.745 0.594745 135.372 0.373444 136.162 0.373444H150.505C152.167 0.373444 152.998 1.09267 152.998 2.53112C152.998 3.94191 152.167 4.6473 150.505 4.6473H138.818V12.6141H149.688C151.349 12.6141 152.18 13.3333 152.18 14.7718C152.18 16.1826 151.349 16.888 149.688 16.888H138.818V27.1784C138.818 27.9806 138.586 28.6307 138.123 29.1286C137.66 29.6266 137.034 29.8755 136.244 29.8755Z"/>
    <path d="M171.566 29.6266C170.776 29.6266 170.15 29.4053 169.686 28.9627C169.251 28.5201 169.033 27.8977 169.033 27.0954V2.90456C169.033 2.10235 169.251 1.47995 169.686 1.03735C170.15 0.594745 170.776 0.373444 171.566 0.373444H186.318C187.108 0.373444 187.721 0.553251 188.157 0.912864C188.593 1.27248 188.81 1.78423 188.81 2.44813C188.81 3.1397 188.593 3.67911 188.157 4.06639C187.721 4.426 187.108 4.60581 186.318 4.60581H174.181V12.6556H185.501C186.291 12.6556 186.904 12.8354 187.339 13.195C187.775 13.5546 187.993 14.0802 187.993 14.7718C187.993 15.4357 187.775 15.9474 187.339 16.3071C186.904 16.6667 186.291 16.8465 185.501 16.8465H174.181V25.3942H186.318C187.108 25.3942 187.721 25.5878 188.157 25.9751C188.593 26.3347 188.81 26.8603 188.81 27.5519C188.81 28.2158 188.593 28.7275 188.157 29.0871C187.721 29.4468 187.108 29.6266 186.318 29.6266H171.566Z"/>
    <path d="M218.147 30C215.368 30 212.93 29.3914 210.832 28.1743C208.762 26.9571 207.168 25.2144 206.051 22.9461C204.934 20.6777 204.376 18.0221 204.376 14.9793C204.376 11.9364 204.934 9.29461 206.051 7.05394C207.168 4.78562 208.762 3.04288 210.832 1.82573C212.93 0.608576 215.368 0 218.147 0C219.945 0 221.634 0.276626 223.214 0.829877C224.794 1.35546 226.197 2.13002 227.423 3.15353C227.777 3.43015 228.022 3.72061 228.158 4.0249C228.295 4.32919 228.363 4.70263 228.363 5.14523C228.363 5.7538 228.199 6.26556 227.872 6.6805C227.546 7.09544 227.151 7.30291 226.687 7.30291C226.143 7.30291 225.584 7.10927 225.012 6.72199C223.841 5.83679 222.751 5.22822 221.743 4.89627C220.735 4.53665 219.618 4.35685 218.392 4.35685C215.559 4.35685 213.407 5.25588 211.936 7.05394C210.492 8.85201 209.77 11.4938 209.77 14.9793C209.77 18.4924 210.492 21.148 211.936 22.9461C213.407 24.7441 215.559 25.6432 218.392 25.6432C219.564 25.6432 220.64 25.4634 221.62 25.1037C222.628 24.7441 223.759 24.1355 225.012 23.278C225.284 23.112 225.557 22.9737 225.829 22.8631C226.102 22.7524 226.388 22.6971 226.687 22.6971C227.151 22.6971 227.546 22.9046 227.872 23.3195C228.199 23.7344 228.363 24.2462 228.363 24.8548C228.363 25.2697 228.295 25.6432 228.158 25.9751C228.022 26.2794 227.777 26.5698 227.423 26.8465C226.197 27.87 224.794 28.6584 223.214 29.2116C221.634 29.7372 219.945 30 218.147 30Z"/>
    <path d="M254.269 29.834C253.452 29.834 252.798 29.5989 252.308 29.1286C251.844 28.6307 251.613 27.9806 251.613 27.1784V4.77178H244.176C242.541 4.77178 241.724 4.03873 241.724 2.57262C241.724 1.1065 242.541 0.373444 244.176 0.373444H264.321C265.956 0.373444 266.773 1.1065 266.773 2.57262C266.773 4.03873 265.956 4.77178 264.321 4.77178H256.884V27.1784C256.884 27.9806 256.639 28.6307 256.149 29.1286C255.686 29.5989 255.059 29.834 254.269 29.834Z"/>
    <path d="M284.765 29.8755C283.975 29.8755 283.334 29.6266 282.844 29.1286C282.381 28.6307 282.149 27.9806 282.149 27.1784V2.82158C282.149 2.01937 282.381 1.38313 282.844 0.912864C283.334 0.414938 283.975 0.165975 284.765 0.165975C285.582 0.165975 286.222 0.414938 286.685 0.912864C287.176 1.38313 287.421 2.01937 287.421 2.82158V27.1784C287.421 27.9806 287.176 28.6307 286.685 29.1286C286.222 29.6266 285.582 29.8755 284.765 29.8755Z"/>
    <path d="M318.732 30C315.926 30 313.488 29.3914 311.418 28.1743C309.375 26.9571 307.795 25.2144 306.678 22.9461C305.561 20.6777 305.002 18.0221 305.002 14.9793C305.002 11.9364 305.547 9.29461 306.637 7.05394C307.754 4.78562 309.347 3.04288 311.418 1.82573C313.488 0.608576 315.926 0 318.732 0C321.538 0 323.963 0.608576 326.006 1.82573C328.076 3.04288 329.656 4.78562 330.746 7.05394C331.863 9.29461 332.422 11.9364 332.422 14.9793C332.422 18.0221 331.863 20.6777 330.746 22.9461C329.629 25.2144 328.036 26.9571 325.965 28.1743C323.922 29.3914 321.511 30 318.732 30ZM318.732 25.7261C321.375 25.7261 323.432 24.7994 324.903 22.9461C326.401 21.0927 327.15 18.4371 327.15 14.9793C327.15 11.5214 326.401 8.87967 324.903 7.05394C323.432 5.20055 321.375 4.27386 318.732 4.27386C316.063 4.27386 313.979 5.20055 312.48 7.05394C311.009 8.87967 310.274 11.5214 310.274 14.9793C310.274 18.4371 311.009 21.0927 312.48 22.9461C313.979 24.7994 316.063 25.7261 318.732 25.7261Z"/>
    <path d="M371.826 0.165975C372.589 0.165975 373.188 0.414938 373.624 0.912864C374.087 1.38313 374.319 2.01937 374.319 2.82158V27.1784C374.319 27.9806 374.087 28.6307 373.624 29.1286C373.161 29.6266 372.562 29.8755 371.826 29.8755C370.954 29.8755 370.287 29.5574 369.824 28.9212L354.909 9.21162V27.1784C354.909 27.9806 354.691 28.6307 354.255 29.1286C353.819 29.6266 353.22 29.8755 352.457 29.8755C351.694 29.8755 351.095 29.6266 350.659 29.1286C350.223 28.6307 350.005 27.9806 350.005 27.1784V2.82158C350.005 2.01937 350.237 1.38313 350.7 0.912864C351.163 0.414938 351.776 0.165975 352.538 0.165975C353.383 0.165975 354.037 0.484094 354.5 1.12033L369.374 20.7469V2.82158C369.374 2.01937 369.592 1.38313 370.028 0.912864C370.491 0.414938 371.09 0.165975 371.826 0.165975Z"/>
    <path d="M402.763 30C400.665 30 398.676 29.7234 396.796 29.1701C394.944 28.5892 393.432 27.8147 392.261 26.8465C391.634 26.3762 391.321 25.7123 391.321 24.8548C391.321 24.2739 391.484 23.7759 391.811 23.361C392.165 22.9184 392.574 22.6971 393.037 22.6971C393.527 22.6971 394.086 22.8907 394.712 23.278C395.884 24.1355 397.11 24.758 398.39 25.1452C399.671 25.5325 401.087 25.7261 402.64 25.7261C404.629 25.7261 406.154 25.3804 407.217 24.6888C408.279 23.9696 408.81 22.9322 408.81 21.5768C408.81 20.5256 408.306 19.7234 407.298 19.1701C406.318 18.5892 404.67 18.036 402.354 17.5104C399.957 16.9848 398.009 16.3762 396.51 15.6846C395.012 14.9931 393.882 14.1079 393.119 13.029C392.356 11.9502 391.975 10.5809 391.975 8.92116C391.975 7.20609 392.451 5.67082 393.405 4.31535C394.358 2.95989 395.68 1.90871 397.369 1.16183C399.085 0.387275 401.005 0 403.13 0C407.026 0 410.2 1.05118 412.652 3.15353C413.006 3.45782 413.251 3.7621 413.387 4.06639C413.551 4.34302 413.632 4.70263 413.632 5.14523C413.632 5.72614 413.455 6.2379 413.101 6.6805C412.774 7.09544 412.379 7.30291 411.916 7.30291C411.644 7.30291 411.385 7.26141 411.14 7.17843C410.922 7.09544 410.622 6.94329 410.241 6.72199C409.124 5.89212 408.034 5.28354 406.971 4.89627C405.936 4.48133 404.656 4.27386 403.13 4.27386C401.278 4.27386 399.807 4.66114 398.717 5.43569C397.655 6.18257 397.123 7.23375 397.123 8.58921C397.123 9.72338 397.6 10.5947 398.554 11.2033C399.507 11.8119 401.128 12.379 403.416 12.9046C405.841 13.4578 407.802 14.0802 409.301 14.7718C410.826 15.4357 411.984 16.2932 412.774 17.3444C413.591 18.3956 414 19.7095 414 21.2863C414 23.0014 413.523 24.5228 412.57 25.8506C411.644 27.1508 410.322 28.1743 408.606 28.9212C406.917 29.6404 404.969 30 402.763 30Z"/>
</symbol><symbol viewBox="0 0 414 30" id="logo" xmlns="http://www.w3.org/2000/svg">
    <path d="M2.61526 29.8755C1.82523 29.8755 1.18504 29.6404 0.694678 29.1701C0.231559 28.6722 0 28.0083 0 27.1784V2.90456C0 2.10235 0.217938 1.47995 0.653815 1.03735C1.11693 0.594745 1.74351 0.373444 2.53353 0.373444H12.5859C15.6643 0.373444 18.0616 1.16183 19.7779 2.73859C21.4942 4.28769 22.3523 6.47303 22.3523 9.29461C22.3523 12.1162 21.4942 14.3154 19.7779 15.8921C18.0616 17.4689 15.6643 18.2573 12.5859 18.2573H5.27138V27.1784C5.27138 28.0083 5.0262 28.6722 4.53584 29.1701C4.07272 29.6404 3.43253 29.8755 2.61526 29.8755ZM11.9321 14.1494C15.5554 14.1494 17.367 12.545 17.367 9.3361C17.367 6.12725 15.5554 4.52282 11.9321 4.52282H5.27138V14.1494H11.9321Z"/>
    <path d="M62.2743 26.4315C62.4377 26.7911 62.5195 27.1508 62.5195 27.5104C62.5195 28.1466 62.2607 28.686 61.7431 29.1286C61.2527 29.5712 60.6806 29.7925 60.0268 29.7925C59.5909 29.7925 59.1823 29.6819 58.8009 29.4606C58.4195 29.2116 58.1198 28.8382 57.9019 28.3403L55.4501 22.7801H41.0662L38.6144 28.3403C38.3964 28.8382 38.0968 29.2116 37.7154 29.4606C37.334 29.6819 36.9117 29.7925 36.4486 29.7925C35.822 29.7925 35.2499 29.5712 34.7323 29.1286C34.2147 28.686 33.9559 28.1466 33.9559 27.5104C33.9559 27.1508 34.0377 26.7911 34.2011 26.4315L45.4794 1.82573C45.7246 1.27248 46.0924 0.857538 46.5827 0.580913C47.1003 0.276626 47.6452 0.124482 48.2173 0.124482C48.7894 0.124482 49.3206 0.276626 49.8109 0.580913C50.3285 0.857538 50.7099 1.27248 50.9551 1.82573L62.2743 26.4315ZM42.8642 18.6307H53.6521L48.2581 6.30705L42.8642 18.6307Z"/>
    <path d="M112.12 1.78423C112.31 1.23098 112.61 0.816044 113.019 0.53942C113.455 0.262795 113.931 0.124482 114.449 0.124482C115.103 0.124482 115.661 0.331951 116.124 0.746888C116.615 1.16183 116.86 1.71508 116.86 2.40664C116.86 2.6556 116.792 3.01522 116.656 3.48548L107.87 28.1743C107.652 28.7275 107.284 29.1563 106.767 29.4606C106.276 29.7649 105.731 29.917 105.132 29.917C104.533 29.917 103.974 29.7649 103.457 29.4606C102.939 29.1563 102.585 28.7275 102.394 28.1743L95.6109 8.63071L88.705 28.1743C88.487 28.7275 88.1193 29.1563 87.6016 29.4606C87.1113 29.7649 86.5664 29.917 85.9671 29.917C85.3678 29.917 84.8093 29.7649 84.2917 29.4606C83.8013 29.1563 83.4608 28.7275 83.2701 28.1743L74.4845 3.48548C74.3483 3.07054 74.2802 2.71093 74.2802 2.40664C74.2802 1.71508 74.5253 1.16183 75.0157 0.746888C75.5333 0.331951 76.1326 0.124482 76.8137 0.124482C77.3585 0.124482 77.8489 0.262795 78.2848 0.53942C78.7207 0.816044 79.0339 1.23098 79.2246 1.78423L86.1714 22.0747L93.3225 1.90871C93.5132 1.35546 93.8265 0.926695 94.2624 0.622406C94.6983 0.290457 95.175 0.124482 95.6926 0.124482C96.2102 0.124482 96.6869 0.290457 97.1228 0.622406C97.5859 0.926695 97.9129 1.3693 98.1035 1.95021L105.05 22.3237L112.12 1.78423Z"/>
    <path d="M136.244 29.8755C135.453 29.8755 134.813 29.6266 134.323 29.1286C133.86 28.6307 133.628 27.9806 133.628 27.1784V2.90456C133.628 2.10235 133.846 1.47995 134.282 1.03735C134.745 0.594745 135.372 0.373444 136.162 0.373444H150.505C152.167 0.373444 152.998 1.09267 152.998 2.53112C152.998 3.94191 152.167 4.6473 150.505 4.6473H138.818V12.6141H149.688C151.349 12.6141 152.18 13.3333 152.18 14.7718C152.18 16.1826 151.349 16.888 149.688 16.888H138.818V27.1784C138.818 27.9806 138.586 28.6307 138.123 29.1286C137.66 29.6266 137.034 29.8755 136.244 29.8755Z"/>
    <path d="M171.566 29.6266C170.776 29.6266 170.15 29.4053 169.686 28.9627C169.251 28.5201 169.033 27.8977 169.033 27.0954V2.90456C169.033 2.10235 169.251 1.47995 169.686 1.03735C170.15 0.594745 170.776 0.373444 171.566 0.373444H186.318C187.108 0.373444 187.721 0.553251 188.157 0.912864C188.593 1.27248 188.81 1.78423 188.81 2.44813C188.81 3.1397 188.593 3.67911 188.157 4.06639C187.721 4.426 187.108 4.60581 186.318 4.60581H174.181V12.6556H185.501C186.291 12.6556 186.904 12.8354 187.339 13.195C187.775 13.5546 187.993 14.0802 187.993 14.7718C187.993 15.4357 187.775 15.9474 187.339 16.3071C186.904 16.6667 186.291 16.8465 185.501 16.8465H174.181V25.3942H186.318C187.108 25.3942 187.721 25.5878 188.157 25.9751C188.593 26.3347 188.81 26.8603 188.81 27.5519C188.81 28.2158 188.593 28.7275 188.157 29.0871C187.721 29.4468 187.108 29.6266 186.318 29.6266H171.566Z"/>
    <path d="M218.147 30C215.368 30 212.93 29.3914 210.832 28.1743C208.762 26.9571 207.168 25.2144 206.051 22.9461C204.934 20.6777 204.376 18.0221 204.376 14.9793C204.376 11.9364 204.934 9.29461 206.051 7.05394C207.168 4.78562 208.762 3.04288 210.832 1.82573C212.93 0.608576 215.368 0 218.147 0C219.945 0 221.634 0.276626 223.214 0.829877C224.794 1.35546 226.197 2.13002 227.423 3.15353C227.777 3.43015 228.022 3.72061 228.158 4.0249C228.295 4.32919 228.363 4.70263 228.363 5.14523C228.363 5.7538 228.199 6.26556 227.872 6.6805C227.546 7.09544 227.15 7.3029 226.687 7.3029C226.143 7.3029 225.584 7.10927 225.012 6.72199C223.841 5.83679 222.751 5.22822 221.743 4.89627C220.735 4.53665 219.618 4.35685 218.392 4.35685C215.559 4.35685 213.407 5.25588 211.936 7.05394C210.492 8.85201 209.77 11.4938 209.77 14.9793C209.77 18.4924 210.492 21.148 211.936 22.9461C213.407 24.7441 215.559 25.6432 218.392 25.6432C219.564 25.6432 220.64 25.4633 221.62 25.1037C222.628 24.7441 223.759 24.1355 225.012 23.278C225.284 23.112 225.557 22.9737 225.829 22.8631C226.102 22.7524 226.388 22.6971 226.687 22.6971C227.15 22.6971 227.546 22.9046 227.872 23.3195C228.199 23.7344 228.363 24.2462 228.363 24.8548C228.363 25.2697 228.295 25.6432 228.158 25.9751C228.022 26.2794 227.777 26.5698 227.423 26.8465C226.197 27.87 224.794 28.6584 223.214 29.2116C221.634 29.7372 219.945 30 218.147 30Z"/>
    <path d="M254.269 29.834C253.452 29.834 252.798 29.5989 252.307 29.1286C251.844 28.6307 251.613 27.9806 251.613 27.1784V4.77178H244.176C242.541 4.77178 241.724 4.03873 241.724 2.57262C241.724 1.1065 242.541 0.373444 244.176 0.373444H264.321C265.956 0.373444 266.773 1.1065 266.773 2.57262C266.773 4.03873 265.956 4.77178 264.321 4.77178H256.884V27.1784C256.884 27.9806 256.639 28.6307 256.149 29.1286C255.686 29.5989 255.059 29.834 254.269 29.834Z"/>
    <path d="M284.765 29.8755C283.975 29.8755 283.334 29.6266 282.844 29.1286C282.381 28.6307 282.149 27.9806 282.149 27.1784V2.82158C282.149 2.01937 282.381 1.38313 282.844 0.912864C283.334 0.414938 283.975 0.165975 284.765 0.165975C285.582 0.165975 286.222 0.414938 286.685 0.912864C287.175 1.38313 287.421 2.01937 287.421 2.82158V27.1784C287.421 27.9806 287.175 28.6307 286.685 29.1286C286.222 29.6266 285.582 29.8755 284.765 29.8755Z"/>
    <path d="M318.732 30C315.926 30 313.488 29.3914 311.418 28.1743C309.375 26.9571 307.794 25.2144 306.678 22.9461C305.561 20.6777 305.002 18.0221 305.002 14.9793C305.002 11.9364 305.547 9.29461 306.637 7.05394C307.754 4.78562 309.347 3.04288 311.418 1.82573C313.488 0.608576 315.926 0 318.732 0C321.538 0 323.963 0.608576 326.006 1.82573C328.076 3.04288 329.656 4.78562 330.746 7.05394C331.863 9.29461 332.422 11.9364 332.422 14.9793C332.422 18.0221 331.863 20.6777 330.746 22.9461C329.629 25.2144 328.036 26.9571 325.965 28.1743C323.922 29.3914 321.511 30 318.732 30ZM318.732 25.7261C321.375 25.7261 323.432 24.7994 324.903 22.9461C326.401 21.0927 327.15 18.4371 327.15 14.9793C327.15 11.5214 326.401 8.87967 324.903 7.05394C323.432 5.20055 321.375 4.27386 318.732 4.27386C316.063 4.27386 313.979 5.20055 312.48 7.05394C311.009 8.87967 310.274 11.5214 310.274 14.9793C310.274 18.4371 311.009 21.0927 312.48 22.9461C313.979 24.7994 316.063 25.7261 318.732 25.7261Z"/>
    <path d="M371.826 0.165975C372.589 0.165975 373.188 0.414938 373.624 0.912864C374.087 1.38313 374.319 2.01937 374.319 2.82158V27.1784C374.319 27.9806 374.087 28.6307 373.624 29.1286C373.161 29.6266 372.562 29.8755 371.826 29.8755C370.954 29.8755 370.287 29.5574 369.824 28.9212L354.909 9.21162V27.1784C354.909 27.9806 354.691 28.6307 354.255 29.1286C353.819 29.6266 353.22 29.8755 352.457 29.8755C351.694 29.8755 351.095 29.6266 350.659 29.1286C350.223 28.6307 350.005 27.9806 350.005 27.1784V2.82158C350.005 2.01937 350.237 1.38313 350.7 0.912864C351.163 0.414938 351.776 0.165975 352.538 0.165975C353.383 0.165975 354.037 0.484094 354.5 1.12033L369.374 20.7469V2.82158C369.374 2.01937 369.592 1.38313 370.028 0.912864C370.491 0.414938 371.09 0.165975 371.826 0.165975Z"/>
    <path d="M402.763 30C400.665 30 398.676 29.7234 396.796 29.1701C394.944 28.5892 393.432 27.8147 392.261 26.8465C391.634 26.3762 391.321 25.7123 391.321 24.8548C391.321 24.2739 391.484 23.7759 391.811 23.361C392.165 22.9184 392.574 22.6971 393.037 22.6971C393.527 22.6971 394.086 22.8907 394.712 23.278C395.884 24.1355 397.11 24.758 398.39 25.1452C399.671 25.5325 401.087 25.7261 402.64 25.7261C404.629 25.7261 406.154 25.3804 407.217 24.6888C408.279 23.9696 408.81 22.9322 408.81 21.5768C408.81 20.5256 408.306 19.7234 407.298 19.1701C406.318 18.5892 404.67 18.036 402.354 17.5104C399.957 16.9848 398.009 16.3762 396.51 15.6846C395.012 14.9931 393.882 14.1079 393.119 13.029C392.356 11.9502 391.975 10.5809 391.975 8.92116C391.975 7.20609 392.451 5.67082 393.405 4.31535C394.358 2.95989 395.68 1.90871 397.369 1.16183C399.085 0.387275 401.005 0 403.13 0C407.026 0 410.2 1.05118 412.651 3.15353C413.006 3.45782 413.251 3.7621 413.387 4.06639C413.55 4.34302 413.632 4.70263 413.632 5.14523C413.632 5.72614 413.455 6.2379 413.101 6.6805C412.774 7.09544 412.379 7.3029 411.916 7.3029C411.644 7.3029 411.385 7.26141 411.14 7.17842C410.922 7.09544 410.622 6.94329 410.241 6.72199C409.124 5.89212 408.034 5.28354 406.971 4.89627C405.936 4.48133 404.656 4.27386 403.13 4.27386C401.278 4.27386 399.807 4.66114 398.717 5.43569C397.655 6.18257 397.123 7.23375 397.123 8.58921C397.123 9.72338 397.6 10.5947 398.554 11.2033C399.507 11.8119 401.128 12.379 403.416 12.9046C405.841 13.4578 407.802 14.0802 409.301 14.7718C410.826 15.4357 411.984 16.2932 412.774 17.3444C413.591 18.3956 414 19.7095 414 21.2863C414 23.0014 413.523 24.5228 412.57 25.8506C411.644 27.1508 410.322 28.1743 408.606 28.9212C406.917 29.6404 404.969 30 402.763 30Z"/>
</symbol><symbol viewBox="0 0 24 25" id="svgicons--heart" xmlns="http://www.w3.org/2000/svg">
    <path fill-rule="evenodd" clip-rule="evenodd" d="M12.6924 7.58373C12.3055 7.95505 11.6945 7.95505 11.3076 7.58373L10.6152 6.91927C9.80477 6.14154 8.70994 5.66667 7.5 5.66667C5.01472 5.66667 3 7.68139 3 10.1667C3 12.5493 4.28979 14.5167 6.15176 16.1332C8.01532 17.7511 10.2434 18.8241 11.5746 19.3717C11.853 19.4862 12.147 19.4862 12.4254 19.3717C13.7566 18.8241 15.9847 17.7511 17.8482 16.1332C19.7102 14.5167 21 12.5493 21 10.1667C21 7.68139 18.9853 5.66667 16.5 5.66667C15.2901 5.66667 14.1952 6.14154 13.3848 6.91927L12.6924 7.58373ZM12 5.47624C10.8321 4.35548 9.24649 3.66667 7.5 3.66667C3.91015 3.66667 1 6.57682 1 10.1667C1 16.5349 7.97034 20.0517 10.8138 21.2214C11.5796 21.5364 12.4204 21.5364 13.1862 21.2214C16.0297 20.0517 23 16.5349 23 10.1667C23 6.57682 20.0899 3.66667 16.5 3.66667C14.7535 3.66667 13.1679 4.35548 12 5.47624Z"/>
</symbol><symbol viewBox="0 0 24 24" id="svgicons--heart-line" xmlns="http://www.w3.org/2000/svg">
    <path d="M12.001 4.52853C14.35 2.42 17.98 2.49 20.2426 4.75736C22.5053 7.02472 22.583 10.637 20.4786 12.993L11.9999 21.485L3.52138 12.993C1.41705 10.637 1.49571 7.01901 3.75736 4.75736C6.02157 2.49315 9.64519 2.41687 12.001 4.52853ZM18.827 6.1701C17.3279 4.66794 14.9076 4.60701 13.337 6.01687L12.0019 7.21524L10.6661 6.01781C9.09098 4.60597 6.67506 4.66808 5.17157 6.17157C3.68183 7.66131 3.60704 10.0473 4.97993 11.6232L11.9999 18.6543L19.0201 11.6232C20.3935 10.0467 20.319 7.66525 18.827 6.1701Z"/>
</symbol><symbol viewBox="0 0 24 24" id="svgicons--id-card-line" xmlns="http://www.w3.org/2000/svg">
    <path d="M3 6H21V18H3V6ZM2 4C1.44772 4 1 4.44772 1 5V19C1 19.5523 1.44772 20 2 20H22C22.5523 20 23 19.5523 23 19V5C23 4.44772 22.5523 4 22 4H2ZM13 8H19V10H13V8ZM18 12H13V14H18V12ZM10.5 10C10.5 11.3807 9.38071 12.5 8 12.5C6.61929 12.5 5.5 11.3807 5.5 10C5.5 8.61929 6.61929 7.5 8 7.5C9.38071 7.5 10.5 8.61929 10.5 10ZM8 13.5C6.067 13.5 4.5 15.067 4.5 17H11.5C11.5 15.067 9.933 13.5 8 13.5Z"/>
</symbol><symbol viewBox="0 0 24 24" id="svgicons--search" xmlns="http://www.w3.org/2000/svg">
    <path d="M18.5 18.5L22 22M21 11.5C21 6.25329 16.7467 2 11.5 2C6.25329 2 2 6.25329 2 11.5C2 16.7467 6.25329 21 11.5 21C16.7467 21 21 16.7467 21 11.5Z" stroke-width="1.5" stroke-linecap="round" stroke-linejoin="round"/>
</symbol><symbol viewBox="0 0 24 24" id="svgicons--search-line" xmlns="http://www.w3.org/2000/svg">
    <path d="M18.031 16.6168L22.3137 20.8995L20.8995 22.3137L16.6168 18.031C15.0769 19.263 13.124 20 11 20C6.032 20 2 15.968 2 11C2 6.032 6.032 2 11 2C15.968 2 20 6.032 20 11C20 13.124 19.263 15.0769 18.031 16.6168ZM16.0247 15.8748C17.2475 14.6146 18 12.8956 18 11C18 7.1325 14.8675 4 11 4C7.1325 4 4 7.1325 4 11C4 14.8675 7.1325 18 11 18C12.8956 18 14.6146 17.2475 15.8748 16.0247L16.0247 15.8748Z"/>
</symbol><symbol viewBox="0 0 21 20" id="svgicons--star" xmlns="http://www.w3.org/2000/svg">
    <path d="M9.73738 1.16776C10.0811 0.351305 11.2519 0.351306 11.5956 1.16777L13.6244 5.98665C13.7694 6.33085 14.0971 6.56603 14.4732 6.59582L19.7392 7.0129C20.6314 7.08356 20.9932 8.18355 20.3134 8.75882L16.3013 12.1541C16.0147 12.3966 15.8895 12.7772 15.9771 13.1398L17.2028 18.2164C17.4105 19.0765 16.4634 19.7564 15.6995 19.2955L11.191 16.575C10.869 16.3806 10.464 16.3806 10.142 16.575L5.63349 19.2955C4.86962 19.7564 3.92246 19.0765 4.13014 18.2164L5.35593 13.1398C5.44348 12.7772 5.31833 12.3966 5.03176 12.1541L1.01957 8.75882C0.339786 8.18355 0.701572 7.08356 1.59379 7.0129L6.85986 6.59582C7.236 6.56603 7.56366 6.33085 7.70857 5.98665L9.73738 1.16776Z"/>
</symbol><symbol viewBox="0 0 21 20" id="svgicons--star-off" xmlns="http://www.w3.org/2000/svg">
    <path d="M9.73726 1.16776C10.081 0.351305 11.2518 0.351306 11.5955 1.16777L13.6243 5.98665C13.7693 6.33085 14.0969 6.56603 14.473 6.59582L19.739 7.0129C20.6313 7.08356 20.993 8.18355 20.3133 8.75882L16.3012 12.1541C16.0146 12.3966 15.8894 12.7772 15.9769 13.1398L17.2027 18.2164C17.4104 19.0765 16.4633 19.7564 15.6994 19.2955L11.1909 16.575C10.8689 16.3806 10.4639 16.3806 10.1419 16.575L5.63337 19.2955C4.86949 19.7564 3.92234 19.0765 4.13001 18.2164L5.3558 13.1398C5.44336 12.7772 5.3182 12.3966 5.03164 12.1541L1.01944 8.75882C0.339664 8.18355 0.70145 7.08356 1.59367 7.0129L6.85974 6.59582C7.23588 6.56603 7.56354 6.33085 7.70845 5.98665L9.73726 1.16776Z"/>
</symbol><symbol viewBox="0 0 17 17" id="svgicons--star-small" xmlns="http://www.w3.org/2000/svg">
    <path d="M7.7424 1.01871C8.03357 0.327118 9.02526 0.327119 9.31644 1.01871L11.0349 5.10058C11.1577 5.39214 11.4353 5.59135 11.7539 5.61658L16.2145 5.96987C16.9703 6.02973 17.2767 6.96149 16.7009 7.44877L13.3024 10.3248C13.0597 10.5302 12.9536 10.8526 13.0278 11.1597L14.0661 15.4599C14.242 16.1885 13.4397 16.7644 12.7927 16.374L8.97373 14.0695C8.70095 13.9049 8.35789 13.9049 8.08512 14.0695L4.26616 16.374C3.61912 16.7644 2.81682 16.1885 2.99274 15.4599L4.03105 11.1597C4.10521 10.8526 3.9992 10.5302 3.75646 10.3248L0.357902 7.44877C-0.217911 6.96149 0.0885424 6.02973 0.844307 5.96987L5.30497 5.61658C5.62358 5.59135 5.90113 5.39214 6.02388 5.10058L7.7424 1.01871Z"/>
</symbol><symbol viewBox="0 0 24 24" id="svgicons--user" xmlns="http://www.w3.org/2000/svg">
    <path d="M18.5588 19.5488C17.5654 16.8918 15.0036 15 12 15C8.99638 15 6.4346 16.8918 5.44117 19.5488M18.5588 19.5488C20.6672 17.7154 22 15.0134 22 12C22 6.47715 17.5228 2 12 2C6.47715 2 2 6.47715 2 12C2 15.0134 3.33285 17.7154 5.44117 19.5488M18.5588 19.5488C16.8031 21.0756 14.5095 22 12 22C9.49052 22 7.19694 21.0756 5.44117 19.5488M15 9C15 10.6569 13.6569 12 12 12C10.3431 12 9 10.6569 9 9C9 7.34315 10.3431 6 12 6C13.6569 6 15 7.34315 15 9Z" stroke-width="1.5" stroke-linejoin="round"/>
</symbol><symbol viewBox="0 0 24 24" id="svgicons--user-star-line" xmlns="http://www.w3.org/2000/svg">
    <path d="M12 14V16C8.68629 16 6 18.6863 6 22H4C4 17.5817 7.58172 14 12 14ZM12 13C8.685 13 6 10.315 6 7C6 3.685 8.685 1 12 1C15.315 1 18 3.685 18 7C18 10.315 15.315 13 12 13ZM12 11C14.21 11 16 9.21 16 7C16 4.79 14.21 3 12 3C9.79 3 8 4.79 8 7C8 9.21 9.79 11 12 11ZM18 21.5L15.0611 23.0451L15.6224 19.7725L13.2447 17.4549L16.5305 16.9775L18 14L19.4695 16.9775L22.7553 17.4549L20.3776 19.7725L20.9389 23.0451L18 21.5Z"/>
</symbol><symbol id="svgicons--website" enable-background="new 0 0 497 497" viewBox="0 0 497 497" xmlns="http://www.w3.org/2000/svg">
    <g>
        <path d="m497 128.5v312c0 11.046-8.954 20-20 20h-457c-11.046 0-20-8.954-20-20v-312z"/>
        <g>
            <path d="m290.498 294.5c0-23.196-18.804-42-42-42-7.031 0-13.659 1.728-19.482 4.782-13.386 7.021-19.327 21.053-19.327 37.218 0 23.196 15.613 36.457 38.809 36.457 16.214 0 30.282-3.645 37.282-17.099 3.014-5.792 4.718-12.376 4.718-19.358z"/>
            <path d="m286.468 312.47c-6.73 14.21-21.2 24.03-37.97 24.03-23.2 0-42-18.8-42-42 0-16.77 9.82-31.24 24.03-37.97-2.59 5.45-4.03 11.54-4.03 17.97 0 23.2 18.8 42 42 42 6.43 0 12.52-1.44 17.97-4.03z"/>
        </g>
        <g>
            <path d="m429.496 294.5c0-23.196-18.804-42-42-42-7.031 0-13.659 1.728-19.482 4.782-13.386 7.021-19.327 21.053-19.327 37.218 0 23.196 15.613 36.457 38.809 36.457 16.214 0 30.282-3.645 37.282-17.099 3.014-5.792 4.718-12.376 4.718-19.358z"/>
            <path d="m425.466 312.47c-6.73 14.21-21.2 24.03-37.97 24.03-23.2 0-42-18.8-42-42 0-16.77 9.82-31.24 24.03-37.97-2.59 5.45-4.03 11.54-4.03 17.97 0 23.2 18.8 42 42 42 6.43 0 12.52-1.44 17.97-4.03z"/>
        </g>
        <path d="m497 148.5v-20l-276.011-12.798-220.989 12.798v20 292c0 11.046 8.954 20 20 20h15c-8.28 0-15-6.72-15-15v-291c0-3.314 2.686-6 6-6z"/>
        <g>
            <path d="m497 56.5v72.5h-497v-72.5c0-11.046 8.954-20 20-20h457c11.046 0 20 8.954 20 20z"/>
            <g>
                <path d="m227.758 108.5c-8.255 0-14.947-6.716-14.947-15s6.692-15 14.947-15h208.315c8.255 0 14.947 6.716 14.947 15s-6.692 15-14.947 15z"/>
                <ellipse cx="160.869" cy="93.5" rx="14.947" ry="15"/>
                <path d="m171.361 104.184 12.874-12.869-13.139 1.179z"/>
                <path d="m150.592 82.608 12.562-12.516-2.693 10.408z"/>
                <ellipse cx="98.034" cy="93.5" rx="14.947" ry="15"/>
                <path d="m108.553 104.157 12.382-12.499-12.674.836z"/>
                <path d="m87.757 82.608 12.371-12.459-2.502 10.351z"/>
                <ellipse cx="32.947" cy="93.5" rx="14.947" ry="15"/>
                <path d="m43.769 103.846 12.721-13.186-13.139 1.381z"/>
                <path d="m22.67 82.608 11.622-12.038-1.753 9.93z"/>
            </g>
            <ellipse cx="173.849" cy="80.5" rx="14.947" ry="15"/>
            <path d="m217.514 82.577 12.971-12.991-3.025 14.276z"/>
            <path d="m446.83 103.915 13.149-13.179-10.185 3.381z"/>
            <ellipse cx="110.946" cy="80.5" rx="14.947" ry="15"/>
            <ellipse cx="45.495" cy="80.5" rx="14.947" ry="15"/>
            <path d="m240.737 95.5c-8.255 0-14.947-6.716-14.947-15s6.692-15 14.947-15h208.315c8.255 0 14.947 6.716 14.947 15s-6.692 15-14.947 15z"/>
        </g>
        <path d="m135.893 215 226.628 2c5.523 0 10-4.477 10-10l3.479-7v-30c0-5.523-4.477-10-10-10h-224l-6.107 5c-5.523 0-10 4.477-10 10v30c0 5.523 4.477 10 10 10z"/>
        <path d="m376 200v10c0 5.523-4.477 10-10 10h-234c-5.523 0-10-4.477-10-10v-40c0-5.523 4.477-10 10-10h10v33c0 3.866 3.134 7 7 7z"/>
        <g>
            <path d="m151.5 294.5c0-23.196-18.804-42-42-42-7.031 0-13.659 1.728-19.482 4.782-13.386 7.021-19.327 21.053-19.327 37.218 0 23.196 15.613 36.457 38.809 36.457 16.214 0 30.282-3.645 37.282-17.099 3.014-5.792 4.718-12.376 4.718-19.358z"/>
            <path d="m147.47 312.47c-6.73 14.21-21.2 24.03-37.97 24.03-23.2 0-42-18.8-42-42 0-16.77 9.82-31.24 24.03-37.97-2.59 5.45-4.03 11.54-4.03 17.97 0 23.2 18.8 42 42 42 6.43 0 12.52-1.44 17.97-4.03z"/>
        </g>
        <g>
            <g>
                <path d="m149.5 374h-70c-4.142 0-7.5-3.358-7.5-7.5s3.358-7.5 7.5-7.5h70c4.142 0 7.5 3.358 7.5 7.5s-3.358 7.5-7.5 7.5z"/>
            </g>
            <g>
                <path d="m149.5 404h-80c-4.142 0-7.5-3.358-7.5-7.5s3.358-7.5 7.5-7.5h80c4.142 0 7.5 3.358 7.5 7.5s-3.358 7.5-7.5 7.5z"/>
            </g>
            <g>
                <path d="m149.5 434h-80c-4.142 0-7.5-3.358-7.5-7.5s3.358-7.5 7.5-7.5h80c4.142 0 7.5 3.358 7.5 7.5s-3.358 7.5-7.5 7.5z"/>
            </g>
        </g>
        <g>
            <g>
                <path d="m288.5 374h-70c-4.142 0-7.5-3.358-7.5-7.5s3.358-7.5 7.5-7.5h70c4.143 0 7.5 3.358 7.5 7.5s-3.357 7.5-7.5 7.5z"/>
            </g>
            <g>
                <path d="m288.5 404h-80c-4.142 0-7.5-3.358-7.5-7.5s3.358-7.5 7.5-7.5h80c4.143 0 7.5 3.358 7.5 7.5s-3.357 7.5-7.5 7.5z"/>
            </g>
            <g>
                <path d="m288.5 434h-80c-4.142 0-7.5-3.358-7.5-7.5s3.358-7.5 7.5-7.5h80c4.143 0 7.5 3.358 7.5 7.5s-3.357 7.5-7.5 7.5z"/>
            </g>
        </g>
        <g>
            <g>
                <path d="m427.5 374h-70c-4.143 0-7.5-3.358-7.5-7.5s3.357-7.5 7.5-7.5h70c4.143 0 7.5 3.358 7.5 7.5s-3.357 7.5-7.5 7.5z"/>
            </g>
            <g>
                <path d="m427.5 404h-80c-4.143 0-7.5-3.358-7.5-7.5s3.357-7.5 7.5-7.5h80c4.143 0 7.5 3.358 7.5 7.5s-3.357 7.5-7.5 7.5z"/>
            </g>
            <g>
                <path d="m427.5 434h-80c-4.143 0-7.5-3.358-7.5-7.5s3.357-7.5 7.5-7.5h80c4.143 0 7.5 3.358 7.5 7.5s-3.357 7.5-7.5 7.5z"/>
            </g>
        </g>
    </g>
</symbol><symbol id="ui--arrow_left-20" viewBox="0 0 20 19.84" xmlns="http://www.w3.org/2000/svg">
    <path d="M16.13,9.58H4.81L7.74,6.92a.38.38,0,0,0-.5-.56L3.62,9.64a.37.37,0,0,0-.13.28.37.37,0,0,0,.13.27l3.62,3.29a.38.38,0,0,0,.25.09.39.39,0,0,0,.28-.12.39.39,0,0,0,0-.53L4.88,10.33H16.13a.38.38,0,0,0,.38-.38A.37.37,0,0,0,16.13,9.58Z"/>
</symbol><symbol viewBox="0 0 24 24" id="ui--arrow_left-24" xmlns="http://www.w3.org/2000/svg">
    <path d="M3.98909 11.75H20.25" stroke-linecap="round"/>
    <path d="M8.79349 6.20649L3.25 11.75L8.79349 17.2935" stroke-linecap="round"/>
</symbol><symbol viewBox="0 0 24 24" id="ui--arrow_right-24" xmlns="http://www.w3.org/2000/svg">
    <path d="M19.5109 11.75H3.25001" stroke-linecap="round"/>
    <path d="M14.7065 6.20649L20.25 11.75L14.7065 17.2935" stroke-linecap="round"/>
</symbol><symbol viewBox="0 0 256 256" id="ui--arrow_right-256" xmlns="http://www.w3.org/2000/svg">
    <rect height="256" width="256"/>
    <line stroke-linecap="round" stroke-linejoin="round" stroke-width="12" x1="40" x2="216" y1="128" y2="128"/>
    <polyline points="144 56 216 128 144 200" stroke-linecap="round" stroke-linejoin="round" stroke-width="12"/>
</symbol><symbol viewBox="0 0 32 32" id="ui--arrows_left-32" xmlns="http://www.w3.org/2000/svg">
    <defs>
        <style>.aocls-1{fill:none;}</style>
    </defs>
    <title/>
    <g data-name="Layer 2" id="aoLayer_2">
        <path d="M13,26a1,1,0,0,1-.71-.29l-9-9a1,1,0,0,1,0-1.42l9-9a1,1,0,1,1,1.42,1.42L5.41,16l8.3,8.29a1,1,0,0,1,0,1.42A1,1,0,0,1,13,26Z"/>
        <path d="M28,17H4a1,1,0,0,1,0-2H28a1,1,0,0,1,0,2Z"/>
    </g>
    <g id="aoframe">
        <rect class="aocls-1" height="32" width="32"/>
    </g>
</symbol><symbol id="ui--close_round" style="enable-background:new 0 0 512 512" viewBox="0 0 512 512" xml:space="preserve" xmlns="http://www.w3.org/2000/svg">
    <path d="M437.5,386.6L306.9,256l130.6-130.6c14.1-14.1,14.1-36.8,0-50.9c-14.1-14.1-36.8-14.1-50.9,0L256,205.1L125.4,74.5  c-14.1-14.1-36.8-14.1-50.9,0c-14.1,14.1-14.1,36.8,0,50.9L205.1,256L74.5,386.6c-14.1,14.1-14.1,36.8,0,50.9  c14.1,14.1,36.8,14.1,50.9,0L256,306.9l130.6,130.6c14.1,14.1,36.8,14.1,50.9,0C451.5,423.4,451.5,400.6,437.5,386.6z"/>
</symbol><symbol viewBox="0 0 24 24" id="ui--menu_right" xmlns="http://www.w3.org/2000/svg">
    <path d="M22 18.0048C22 18.5544 21.5544 19 21.0048 19H12.9952C12.4456 19 12 18.5544 12 18.0048C12 17.4552 12.4456 17.0096 12.9952 17.0096H21.0048C21.5544 17.0096 22 17.4552 22 18.0048Z"/>
    <path d="M22 12.0002C22 12.5499 21.5544 12.9954 21.0048 12.9954H2.99519C2.44556 12.9954 2 12.5499 2 12.0002C2 11.4506 2.44556 11.0051 2.99519 11.0051H21.0048C21.5544 11.0051 22 11.4506 22 12.0002Z"/>
    <path d="M21.0048 6.99039C21.5544 6.99039 22 6.54482 22 5.99519C22 5.44556 21.5544 5 21.0048 5H8.99519C8.44556 5 8 5.44556 8 5.99519C8 6.54482 8.44556 6.99039 8.99519 6.99039H21.0048Z"/>
</symbol><symbol viewBox="0 0 19 18" id="ui--ui-arrow" xmlns="http://www.w3.org/2000/svg">
    <path d="M14.2552 4.5V11.8125C14.2552 11.9244 14.2107 12.0317 14.1316 12.1108C14.0525 12.1899 13.9452 12.2344 13.8333 12.2344C13.7214 12.2344 13.6141 12.1899 13.535 12.1108C13.4559 12.0317 13.4114 11.9244 13.4114 11.8125V5.51953L5.1286 13.7953C5.05027 13.8736 4.94405 13.9176 4.83328 13.9176C4.72252 13.9176 4.61629 13.8736 4.53797 13.7953C4.45965 13.717 4.41565 13.6108 4.41565 13.5C4.41565 13.3892 4.45965 13.283 4.53797 13.2047L12.8138 4.92188H6.52078C6.4089 4.92188 6.30159 4.87743 6.22247 4.79831C6.14336 4.71919 6.09891 4.61189 6.09891 4.5C6.09891 4.38811 6.14336 4.28081 6.22247 4.20169C6.30159 4.12257 6.4089 4.07813 6.52078 4.07812H13.8333C13.9452 4.07813 14.0525 4.12257 14.1316 4.20169C14.2107 4.28081 14.2552 4.38811 14.2552 4.5Z"/>
</symbol><symbol viewBox="0 0 20 20" id="ui--ui-arrow-down" xmlns="http://www.w3.org/2000/svg">
    <path d="M15.9531 11.5781L10.3281 17.2031C10.2858 17.2476 10.2349 17.2829 10.1785 17.3071C10.1221 17.3313 10.0614 17.3438 9.99999 17.3438C9.93862 17.3438 9.8779 17.3313 9.82149 17.3071C9.76509 17.2829 9.71418 17.2476 9.67186 17.2031L4.04686 11.5781C3.95984 11.4911 3.91095 11.3731 3.91095 11.25C3.91095 11.1269 3.95984 11.0089 4.04686 10.9219C4.13389 10.8349 4.25192 10.786 4.37499 10.786C4.49806 10.786 4.61609 10.8349 4.70311 10.9219L9.53124 15.7422V3.125C9.53124 3.00068 9.58062 2.88145 9.66853 2.79354C9.75644 2.70564 9.87567 2.65625 9.99999 2.65625C10.1243 2.65625 10.2435 2.70564 10.3314 2.79354C10.4194 2.88145 10.4687 3.00068 10.4687 3.125V15.7422L15.2969 10.9219C15.3839 10.8349 15.5019 10.786 15.625 10.786C15.7481 10.786 15.8661 10.8349 15.9531 10.9219C16.0401 11.0089 16.089 11.1269 16.089 11.25C16.089 11.3731 16.0401 11.4911 15.9531 11.5781Z"/>
</symbol><symbol viewBox="0 0 20 20" id="ui--ui-arrow-top" xmlns="http://www.w3.org/2000/svg">
    <path d="M15.9532 9.07812C15.9109 9.12256 15.8599 9.15794 15.8035 9.18211C15.7471 9.20629 15.6864 9.21875 15.625 9.21875C15.5637 9.21875 15.503 9.20629 15.4466 9.18211C15.3902 9.15794 15.3392 9.12256 15.2969 9.07812L10.4688 4.25781V16.875C10.4688 16.9993 10.4194 17.1185 10.3315 17.2065C10.2436 17.2944 10.1244 17.3438 10 17.3438C9.87573 17.3438 9.7565 17.2944 9.66859 17.2065C9.58069 17.1185 9.5313 16.9993 9.5313 16.875V4.25781L4.70317 9.07812C4.61615 9.16515 4.49812 9.21404 4.37505 9.21404C4.25198 9.21404 4.13395 9.16515 4.04692 9.07812C3.9599 8.9911 3.91101 8.87307 3.91101 8.75C3.91101 8.62693 3.9599 8.5089 4.04692 8.42188L9.67192 2.79687C9.71425 2.75244 9.76515 2.71706 9.82156 2.69289C9.87796 2.66871 9.93868 2.65625 10 2.65625C10.0614 2.65625 10.1221 2.66871 10.1785 2.69289C10.2349 2.71706 10.2859 2.75244 10.3282 2.79687L15.9532 8.42188C15.9976 8.4642 16.033 8.5151 16.0572 8.57151C16.0813 8.62791 16.0938 8.68863 16.0938 8.75C16.0938 8.81137 16.0813 8.87209 16.0572 8.92849C16.033 8.9849 15.9976 9.0358 15.9532 9.07812Z"/>
</symbol><symbol viewBox="0 0 18 19" id="ui--ui-arrow-top-right" xmlns="http://www.w3.org/2000/svg">
    <path d="M13.9218 5V12.3125C13.9218 12.4244 13.8774 12.5317 13.7983 12.6108C13.7192 12.6899 13.6119 12.7344 13.5 12.7344C13.3881 12.7344 13.2808 12.6899 13.2017 12.6108C13.1225 12.5317 13.0781 12.4244 13.0781 12.3125V6.01953L4.79528 14.2953C4.71696 14.3736 4.61074 14.4176 4.49997 14.4176C4.38921 14.4176 4.28298 14.3736 4.20466 14.2953C4.12634 14.217 4.08234 14.1108 4.08234 14C4.08234 13.8892 4.12634 13.783 4.20466 13.7047L12.4804 5.42188H6.18747C6.07558 5.42188 5.96828 5.37743 5.88916 5.29831C5.81004 5.21919 5.7656 5.11189 5.7656 5C5.7656 4.88811 5.81004 4.78081 5.88916 4.70169C5.96828 4.62257 6.07558 4.57813 6.18747 4.57812H13.5C13.6119 4.57813 13.7192 4.62257 13.7983 4.70169C13.8774 4.78081 13.9218 4.88811 13.9218 5Z"/>
</symbol><symbol viewBox="0 0 18 19" id="ui--ui-arrow-top-right-inverse" xmlns="http://www.w3.org/2000/svg">
    <path d="M13.9218 5V12.3125C13.9218 12.4244 13.8774 12.5317 13.7983 12.6108C13.7192 12.6899 13.6119 12.7344 13.5 12.7344C13.3881 12.7344 13.2808 12.6899 13.2017 12.6108C13.1225 12.5317 13.0781 12.4244 13.0781 12.3125V6.01953L4.79528 14.2953C4.71696 14.3736 4.61074 14.4176 4.49997 14.4176C4.38921 14.4176 4.28298 14.3736 4.20466 14.2953C4.12634 14.217 4.08234 14.1108 4.08234 14C4.08234 13.8892 4.12634 13.783 4.20466 13.7047L12.4804 5.42188H6.18747C6.07558 5.42188 5.96828 5.37743 5.88916 5.29831C5.81004 5.21919 5.7656 5.11189 5.7656 5C5.7656 4.88811 5.81004 4.78081 5.88916 4.70169C5.96828 4.62257 6.07558 4.57813 6.18747 4.57812H13.5C13.6119 4.57813 13.7192 4.62257 13.7983 4.70169C13.8774 4.78081 13.9218 4.88811 13.9218 5Z"/>
</symbol><symbol viewBox="0 0 33 32" id="ui--ui-link-icon" xmlns="http://www.w3.org/2000/svg">
    <g filter="url(#bafilter0_b_5200_70)">
        <rect x="0.666748" width="32" height="32" rx="16" fill-opacity="0.05"/>
        <rect x="1.16675" y="0.5" width="31" height="31" rx="15.5" stroke-opacity="0.15"/>
        <path d="M21.5887 11.5V18.8125C21.5887 18.9244 21.5442 19.0317 21.4651 19.1108C21.386 19.1899 21.2787 19.2344 21.1668 19.2344C21.0549 19.2344 20.9476 19.1899 20.8685 19.1108C20.7894 19.0317 20.7449 18.9244 20.7449 18.8125V12.5195L12.4621 20.7953C12.3838 20.8736 12.2775 20.9176 12.1668 20.9176C12.056 20.9176 11.9498 20.8736 11.8715 20.7953C11.7931 20.717 11.7491 20.6108 11.7491 20.5C11.7491 20.3892 11.7931 20.283 11.8715 20.2047L20.1472 11.9219H13.8543C13.7424 11.9219 13.6351 11.8774 13.556 11.7983C13.4769 11.7192 13.4324 11.6119 13.4324 11.5C13.4324 11.3881 13.4769 11.2808 13.556 11.2017C13.6351 11.1226 13.7424 11.0781 13.8543 11.0781H21.1668C21.2787 11.0781 21.386 11.1226 21.4651 11.2017C21.5442 11.2808 21.5887 11.3881 21.5887 11.5Z"/>
    </g>
    <defs>
        <filter id="bafilter0_b_5200_70" x="-29.3333" y="-30" width="92" height="92" filterUnits="userSpaceOnUse" color-interpolation-filters="sRGB">
            <feFlood flood-opacity="0" result="BackgroundImageFix"/>
            <feGaussianBlur in="BackgroundImageFix" stdDeviation="15"/>
            <feComposite in2="SourceAlpha" operator="in" result="effect1_backgroundBlur_5200_70"/>
            <feBlend mode="normal" in="SourceGraphic" in2="effect1_backgroundBlur_5200_70" result="shape"/>
        </filter>
    </defs>
</symbol></svg>